<svg width="906" height="336" viewBox="0 0 906 336" fill="none" xmlns="http://www.w3.org/2000/svg">
<path d="M72.0994 39.6C71.4423 36.9456 70.5193 34.6 69.3299 32.5635C68.1408 30.4909 66.6857 28.7454 64.9646 27.3273C63.2748 25.8727 61.3345 24.7636 59.1441 24C56.9849 23.2363 54.591 22.8546 51.9622 22.8546C47.0492 22.8546 42.7307 24.2727 39.007 27.1091C35.3144 29.9454 32.4353 34.0726 30.37 39.4909C28.3046 44.8726 27.272 51.4544 27.272 59.2365C27.272 67.0182 28.2889 73.6365 30.3232 79.0909C32.3571 84.5456 35.2362 88.7091 38.9599 91.5818C42.6839 94.4182 47.0806 95.8365 52.15 95.8365C56.7503 95.8365 60.6775 94.8909 63.9319 93C67.2177 91.0726 69.7212 88.3635 71.4423 84.8726C73.1946 81.3818 74.0708 77.2544 74.0708 72.4909L78.2015 73.2H53.4173V55.4182H93.6448V69.4909C93.6448 79.3091 91.8612 87.7456 88.2937 94.8C84.7261 101.818 79.8133 107.236 73.5545 111.054C67.2959 114.836 60.1297 116.727 52.0561 116.727C43.0438 116.727 35.1266 114.418 28.3046 109.8C21.4827 105.146 16.1629 98.5456 12.3451 90C8.55864 81.4182 6.66541 71.2365 6.66541 59.4544C6.66541 50.4 7.79198 42.3274 10.0451 35.2365C12.3295 28.1091 15.5214 22.0727 19.6208 17.1273C23.7202 12.1818 28.4924 8.41817 33.9375 5.83634C39.3823 3.25452 45.2812 1.96362 51.6337 1.96362C57.0788 1.96362 62.1483 2.8909 66.8421 4.74543C71.5362 6.56364 75.6981 9.14543 79.3281 12.4909C82.9896 15.8363 85.978 19.8182 88.2937 24.4363C90.6093 29.0182 92.0958 34.0726 92.7529 39.6H72.0994ZM109.225 115.2V31.4182H128.611V46.0365H129.362C130.676 40.8365 132.883 36.9091 135.981 34.2544C139.079 31.5636 142.646 30.2182 146.683 30.2182C147.684 30.2182 148.764 30.2909 149.922 30.4363C151.079 30.5818 152.096 30.7818 152.973 31.0363V51.6544C152.034 51.3274 150.735 51.0365 149.077 50.7818C147.418 50.5274 145.9 50.4 144.523 50.4C141.582 50.4 138.953 51.1456 136.638 52.6365C134.353 54.0909 132.538 56.1274 131.193 58.7456C129.878 61.3635 129.221 64.3818 129.221 67.8V115.2H109.225ZM182.494 116.782C177.894 116.782 173.794 115.854 170.196 114C166.597 112.109 163.749 109.327 161.653 105.654C159.587 101.946 158.555 97.3274 158.555 91.8C158.555 87.1456 159.29 83.2365 160.761 80.0726C162.232 76.9091 164.234 74.3635 166.769 72.4365C169.304 70.5091 172.183 69.0544 175.406 68.0726C178.66 67.0909 182.072 66.4 185.639 66C189.832 65.4909 193.212 65.0182 195.778 64.5818C198.344 64.1091 200.206 63.4182 201.364 62.5091C202.522 61.6 203.1 60.2544 203.1 58.4726V58.1456C203.1 54.6909 202.162 52.0182 200.284 50.1274C198.438 48.2365 195.809 47.2909 192.398 47.2909C188.8 47.2909 185.936 48.2182 183.808 50.0726C181.68 51.8909 180.272 54.1818 179.584 56.9456L161.09 55.2C162.028 50.1091 163.874 45.7091 166.628 42C169.382 38.2544 172.934 35.3818 177.283 33.3818C181.665 31.3454 186.734 30.3273 192.492 30.3273C196.498 30.3273 200.331 30.8727 203.992 31.9636C207.685 33.0544 210.955 34.7456 213.803 37.0365C216.682 39.3274 218.95 42.2726 220.609 45.8726C222.268 49.4365 223.097 53.7091 223.097 58.6909V115.2H204.133V103.582H203.57C202.412 106.2 200.863 108.509 198.923 110.509C196.983 112.473 194.651 114.018 191.929 115.146C189.206 116.236 186.061 116.782 182.494 116.782ZM188.22 100.746C191.162 100.746 193.759 100.073 196.013 98.7274C198.266 97.3456 200.034 95.4909 201.317 93.1635C202.6 90.8365 203.241 88.2 203.241 85.2544V76.3635C202.615 76.8365 201.755 77.2726 200.66 77.6726C199.596 78.0365 198.391 78.3818 197.045 78.7091C195.7 79 194.354 79.2726 193.009 79.5274C191.663 79.7456 190.442 79.9456 189.347 80.1274C187 80.5274 184.95 81.1635 183.198 82.0365C181.446 82.9091 180.084 84.0909 179.114 85.5818C178.144 87.0365 177.659 88.8544 177.659 91.0365C177.659 94.2 178.645 96.6182 180.616 98.2909C182.619 99.9274 185.154 100.746 188.22 100.746ZM265.867 116.564C260.39 116.564 255.431 114.927 250.987 111.654C246.575 108.346 243.07 103.491 240.472 97.0909C237.906 90.6544 236.623 82.7635 236.623 73.4182C236.623 63.8182 237.953 55.8365 240.613 49.4726C243.273 43.0726 246.809 38.2909 251.222 35.1274C255.665 31.9273 260.531 30.3273 265.82 30.3273C269.857 30.3273 273.221 31.1273 275.911 32.7274C278.635 34.2909 280.824 36.2544 282.485 38.6182C284.173 40.9456 285.456 43.2365 286.332 45.4909H286.943V3.4909H306.892V115.2H287.177V101.782H286.332C285.393 104.109 284.063 106.418 282.341 108.709C280.653 110.964 278.448 112.836 275.724 114.327C273.033 115.818 269.747 116.564 265.867 116.564ZM272.204 98.0726C275.427 98.0726 278.15 97.0544 280.37 95.0182C282.625 92.9456 284.346 90.0544 285.536 86.3456C286.756 82.6365 287.364 78.2909 287.364 73.3091C287.364 68.3274 286.77 64 285.583 60.3274C284.393 56.6544 282.672 53.8182 280.419 51.8182C278.164 49.8182 275.427 48.8182 272.204 48.8182C268.918 48.8182 266.148 49.8544 263.895 51.9274C261.642 54 259.937 56.8726 258.779 60.5456C257.621 64.2182 257.042 68.4726 257.042 73.3091C257.042 78.1818 257.621 82.4909 258.779 86.2365C259.968 89.9456 261.673 92.8544 263.895 94.9635C266.148 97.0365 268.918 98.0726 272.204 98.0726ZM356.879 116.836C349.463 116.836 343.079 115.091 337.729 111.6C332.408 108.073 328.308 103.091 325.43 96.6544C322.55 90.1818 321.112 82.5274 321.112 73.6909C321.112 65.0726 322.55 57.5091 325.43 51C328.308 44.4909 332.361 39.4182 337.585 35.7818C342.845 32.1456 349.008 30.3273 356.08 30.3273C360.838 30.3273 365.267 31.2182 369.364 33C373.495 34.7456 377.094 37.3818 380.162 40.9091C383.26 44.4365 385.67 48.8726 387.391 54.2182C389.112 59.5274 389.971 65.7456 389.971 72.8726V79.2544H329.09V64.8544H371.149C371.149 61.5091 370.524 58.5456 369.271 55.9635C368.02 53.3818 366.283 51.3635 364.06 49.9091C361.871 48.4182 359.321 47.6726 356.41 47.6726C353.373 47.6726 350.682 48.4909 348.336 50.1274C346.02 51.7274 344.206 53.8909 342.892 56.6182C341.576 59.3091 340.904 62.3091 340.873 65.6182V79.3091C340.873 83.4544 341.529 87.0365 342.845 90.0544C344.189 93.0726 346.084 95.4 348.524 97.0365C350.963 98.6726 353.86 99.4909 357.206 99.4909C359.429 99.4909 361.464 99.1274 363.309 98.4C365.156 97.6726 366.737 96.5818 368.051 95.1274C369.364 93.6726 370.367 91.8909 371.055 89.7818L389.55 91.2C388.611 96.3635 386.686 100.873 383.775 104.727C380.897 108.546 377.171 111.527 372.603 113.673C368.067 115.782 362.824 116.836 356.879 116.836Z" fill="#475569"/>
<path d="M589.407 332.8V221.091H627.335C634.594 221.091 640.79 222.6 645.923 225.618C651.086 228.6 655.013 232.836 657.704 238.327C660.427 243.782 661.788 250.2 661.788 257.582C661.788 265 660.411 271.382 657.657 276.727C654.903 282.036 650.913 286.109 645.689 288.946C640.492 291.782 634.203 293.2 626.817 293.2H601.424V274.218H623.532C627.412 274.218 630.637 273.6 633.203 272.363C635.767 271.127 637.678 269.273 638.928 266.8C640.212 264.327 640.853 261.254 640.853 257.582C640.853 253.873 640.212 250.746 638.928 248.2C637.678 245.654 635.753 243.727 633.154 242.418C630.59 241.073 627.351 240.4 623.438 240.4H609.733V332.8H589.407ZM641.321 281.963L665.213 332.8H642.778L619.401 281.963H641.321ZM697.025 334.381C692.424 334.381 688.326 333.456 684.727 331.6C681.128 329.709 678.28 326.928 676.182 323.254C674.116 319.546 673.084 314.927 673.084 309.4C673.084 304.746 673.822 300.836 675.292 297.673C676.763 294.509 678.765 291.963 681.298 290.036C683.835 288.109 686.712 286.654 689.937 285.673C693.192 284.691 696.601 284 700.17 283.6C704.361 283.091 707.743 282.618 710.31 282.182C712.873 281.709 714.735 281.018 715.894 280.109C717.051 279.2 717.632 277.854 717.632 276.073V275.746C717.632 272.291 716.693 269.618 714.815 267.727C712.967 265.836 710.34 264.891 706.928 264.891C703.329 264.891 700.467 265.818 698.339 267.673C696.21 269.491 694.803 271.782 694.114 274.546L675.62 272.8C676.559 267.709 678.404 263.309 681.158 259.6C683.912 255.854 687.464 252.982 691.815 250.982C696.196 248.946 701.263 247.927 707.021 247.927C711.028 247.927 714.862 248.473 718.521 249.563C722.214 250.654 725.486 252.346 728.333 254.636C731.211 256.927 733.48 259.873 735.141 263.473C736.798 267.036 737.627 271.309 737.627 276.291V332.8H718.665V321.181H718.1C716.943 323.802 715.393 326.109 713.454 328.109C711.513 330.074 709.181 331.619 706.46 332.746C703.736 333.837 700.591 334.381 697.025 334.381ZM702.75 318.346C705.691 318.346 708.291 317.673 710.544 316.327C712.796 314.946 714.564 313.091 715.847 310.763C717.131 308.436 717.772 305.8 717.772 302.854V293.963C717.145 294.436 716.285 294.873 715.189 295.273C714.126 295.636 712.92 295.982 711.576 296.309C710.23 296.6 708.883 296.873 707.539 297.127C706.193 297.346 704.973 297.546 703.877 297.727C701.53 298.127 699.482 298.763 697.727 299.636C695.976 300.509 694.616 301.691 693.644 303.182C692.674 304.636 692.19 306.454 692.19 308.636C692.19 311.8 693.175 314.218 695.147 315.891C697.149 317.527 699.685 318.346 702.75 318.346ZM773.826 284.363V332.8H753.828V249.018H772.887V263.8H773.732C775.327 258.927 778.003 255.073 781.76 252.236C785.513 249.363 790.068 247.927 795.418 247.927C800.425 247.927 804.79 249.2 808.513 251.746C812.239 254.291 815.133 257.927 817.198 262.654C819.264 267.346 820.296 272.946 820.296 279.454V332.8H800.298V283.6C800.331 278.473 799.205 274.473 796.919 271.6C794.636 268.691 791.492 267.236 787.485 267.236C784.794 267.236 782.415 267.909 780.35 269.254C778.317 270.6 776.72 272.563 775.564 275.146C774.435 277.691 773.856 280.763 773.826 284.363ZM854.862 308.691L854.909 280.818H857.82L880.916 249.018H903.869L872.842 291.127H868.099L854.862 308.691ZM836.745 332.8V221.091H856.74V332.8H836.745ZM881.805 332.8L860.59 296.309L873.921 279.891L905.229 332.8H881.805Z" fill="#475569"/>
<path d="M476.407 92.8L396.547 144L476.407 195.2L541.747 153.301V212.267H556.267V144M425.586 179.669V213.803L476.407 246.4L527.229 213.803V179.669L476.407 212.267L425.586 179.669Z" fill="#3498DB"/>
</svg>
